<svg t="1711333686811" class="icon" viewBox="0 0 1024 1024" version="1.1" xmlns="http://www.w3.org/2000/svg" p-id="4318" width="256" height="256"><path d="M623.6 742.1c-27.1 0-49.1-22-49.1-49.1 0-22 15.5-41.4 36.2-47.8 10.3-2.6 22-3.9 33.6-7.8 20.7-9.1 40.1-20.7 58.2-36.2 1.3-1.3 3.9-2.6 6.5-3.9 3.9-1.3 7.8-1.3 11.6-2.6 0 3.9 0 7.8-1.3 11.6-2.6 5.2-6.5 10.3-10.3 15.5-14.2 18.1-25.8 38.8-32.3 62.1-2.6 6.5-2.6 14.2-3.9 22-7.9 20.7-27.3 36.2-49.2 36.2z m0 0" fill="#FCD514" p-id="4319"></path><path d="M764.4 883c-25.8 0-49.1-20.7-49.1-46.5-2.6-20.7-11.6-40.1-23.3-56.9-6.5-9-14.2-18.1-20.7-28.4-2.6-3.9-3.9-9-2.6-12.9 3.9-5.2 10.3-1.3 14.2 2.6 14.2 9 28.4 19.4 43.9 28.4 14.2 9.1 29.7 14.2 46.5 16.8 23.3 2.6 41.4 23.3 41.4 46.5 0 23.3-14.2 44-37.5 49.1-5 1.3-8.9 1.3-12.8 1.3z m0 0" fill="#FF6702" p-id="4320"></path><path d="M957 690.4c-1.3 27.1-22 47.8-47.8 50.4-18.1 2.6-34.9 9-50.4 20.7-12.9 7.8-24.6 16.8-36.2 25.9-1.3 1.3-2.6 2.6-3.9 2.6-2.6 1.3-5.2 0-7.8 0-1.3-2.6-2.6-5.2-1.3-7.8 2.6-6.5 6.5-11.6 10.3-16.8 15.5-19.4 27.1-41.4 34.9-65.9 2.6-7.8 2.6-16.8 5.2-24.6 7.8-23.3 29.7-37.5 54.3-33.6 22 3.9 38.8 20.7 41.4 42.7 0 2.5 1.3 5.1 1.3 6.4z m0 0" fill="#0087FA" p-id="4321"></path><path d="M714 549.5c0-25.9 19.4-46.5 45.2-49.1 25.8-2.6 49.1 14.2 53 40.1 5.2 31 19.4 60.8 41.4 84 3.9 5.2 6.5 9 9 14.2 1.3 2.6 1.3 5.2-1.3 7.8-1.3 1.3-3.9 1.3-5.2 0-3.9-1.3-9-3.9-11.6-6.5-18.1-15.5-38.8-27.1-60.7-36.2-9-2.6-19.4-5.2-29.7-7.8-24.6-2.6-40.1-23.2-40.1-46.5z m0 0" fill="#2AC402" p-id="4322"></path><path d="M796.7 437c-2.6-19.4-5.2-37.5-10.3-56.9-19.4-65.9-59.5-122.8-115-161.6-68.5-50.4-151.2-77.5-236.5-77.5-19.4 0-38.8 1.3-56.9 3.9-36.2 3.9-71.1 12.9-104.7 27.1-56.9 23.3-106 59.5-143.5 107.3-78.8 98.2-84 236.6-12.9 340 16.8 24.6 36.2 46.5 58.2 64.6 2.6 2.6 3.9 5.2 3.9 7.8-1.3 10.3-3.9 20.7-6.5 31-3.9 12.9-6.5 27.1-6.5 41.4 0 9 2.6 18.1 7.8 27.1 14.2 25.9 47.8 33.6 72.4 19.4 24.6-14.2 49.1-29.7 73.7-44 3.9-2.6 9-2.6 12.9-1.3 28.4 6.5 58.2 11.6 87.9 11.6 31 1.3 63.3-1.3 94.3-7.8 15.5-3.9 31-7.8 47.8-11.6L530.5 711h-2.6c-22 3.9-43.9 10.3-67.2 11.6-46.5 3.9-94.3-1.3-139.6-15.5-3.9-1.3-7.8-1.3-11.6 1.3-22 12.9-43.9 25.9-65.9 40.1-9 5.2-16.8 10.3-27.1 15.5 1.3-5.2 1.3-9 1.3-11.6 5.2-27.1 10.3-53 16.8-80.1 1.3-3.9 0-7.8-3.9-9-20.7-14.2-40.1-32.3-56.9-51.7-45.2-51.7-65.9-120.2-54.3-188.7 7.8-47.8 29.7-93.1 64.6-128 29.7-31 64.6-55.6 104.7-72.4 34.9-12.9 72.4-22 108.6-24.6 24.6-1.3 50.4-1.3 75 1.3 25.8 1.3 51.7 7.8 76.2 16.8 53 18.1 100.8 49.1 137 91.8 25.8 28.4 42.6 63.3 51.7 100.8 3.9 15.5 5.2 32.3 7.8 47.8l53 7.8c-0.1-9.1-0.1-18.1-1.4-27.2z m0 0" fill="#007AFF" p-id="4323"></path></svg>