<svg t="1709795339773" class="icon" viewBox="0 0 1024 1024" version="1.1" xmlns="http://www.w3.org/2000/svg" p-id="9482" width="200" height="200"><path d="M595.77552 510.579651c-14.478759 0-29.04143 14.562671-29.04143 29.016871 0 14.6957 14.560624 29.068036 29.04143 29.068036 21.951965 0 36.3243-14.372336 36.3243-29.068036C632.09982 525.143345 617.727485 510.579651 595.77552 510.579651z" fill="#0DD116" p-id="9483"></path><path d="M755.467569 510.579651c-14.369266 0-28.851095 14.562671-28.851095 29.016871 0 14.6957 14.481829 29.068036 28.851095 29.068036 21.76163 0 36.322254-14.372336 36.322254-29.068036C791.789823 525.143345 777.229199 510.579651 755.467569 510.579651z" fill="#0DD116" p-id="9484"></path><path d="M298.153052 300.001655c-21.734 0-43.714617 14.344706-43.714617 36.214806 0 21.762653 21.980617 36.322254 43.714617 36.322254 21.760606 0 36.213783-14.559601 36.213783-36.322254C334.366835 314.346361 319.912635 300.001655 298.153052 300.001655z" fill="#0DD116" p-id="9485"></path><path d="M501.367337 372.539738c21.844517 0 36.325323-14.560624 36.325323-36.322254 0-21.8701-14.480806-36.213783-36.325323-36.213783-21.760606 0-43.630706 14.343683-43.630706 36.213783C457.736631 357.979114 479.606731 372.539738 501.367337 372.539738z" fill="#0DD116" p-id="9486"></path><path d="M512.330016 1.7519c-280.878109 0-508.827751 227.839125-508.827751 508.827751 0 280.987602 227.949642 508.827751 508.827751 508.827751 280.908808 0 508.74691-227.840148 508.74691-508.827751C1021.076926 229.591025 793.237801 1.7519 512.330016 1.7519zM392.479371 670.464081c-36.241412 0-65.36573-7.392364-101.69003-14.560624l-101.498672 50.91153 29.015847-87.372953C145.658939 568.666604 102.13568 503.164774 102.13568 423.454338c0-138.149407 130.73146-246.928902 290.342668-246.928902 142.730749 0 267.790022 86.880743 292.931632 203.870224-9.217942-1.037632-18.543332-1.691525-27.948539-1.691525-137.932466 0-246.819408 102.916974-246.819408 229.77829 0 21.078061 3.27151 41.421388 8.943696 60.8376C410.61338 670.028153 401.586796 670.464081 392.479371 670.464081zM820.726875 772.153088l21.869077 72.591295-79.627549-43.630706c-29.0445 7.2798-58.221006 14.560624-87.12736 14.560624-138.148383 0-246.927879-94.40716-246.927879-210.683397 0-116.089995 108.779496-210.689536 246.927879-210.689536 130.405025 0 246.600421 94.598518 246.600421 210.689536C922.441465 670.464081 879.028723 728.4661 820.726875 772.153088z" fill="#0DD116" p-id="9487"></path></svg>