<svg t="1696989805156" class="icon" viewBox="0 0 1024 1024" version="1.1" xmlns="http://www.w3.org/2000/svg" p-id="2073" data-spm-anchor-id="a313x.search_index.0.i10.29f33a81IvuOT2" width="200" height="200"><path d="M256 768h640v128H256z" fill="#e6e6e6" p-id="2074" data-spm-anchor-id="a313x.search_index.0.i13.29f33a81IvuOT2" class=""></path><path d="M896 928H256a32 32 0 0 1-32-32v-128a32 32 0 0 1 32-32h640a32 32 0 0 1 32 32v128a32 32 0 0 1-32 32zM288 864h576v-64H288z" fill="#e6e6e6" p-id="2075" data-spm-anchor-id="a313x.search_index.0.i12.29f33a81IvuOT2" class=""></path><path d="M128 448h512v128H128z" fill="#cdcdcd" p-id="2076" data-spm-anchor-id="a313x.search_index.0.i14.29f33a81IvuOT2" class="selected"></path><path d="M640 608H128a32 32 0 0 1-32-32v-128a32 32 0 0 1 32-32h512a32 32 0 0 1 32 32v128a32 32 0 0 1-32 32zM160 544h448v-64H160z" fill="#cdcdcd" p-id="2077" data-spm-anchor-id="a313x.search_index.0.i15.29f33a81IvuOT2" class=""></path><path d="M512 128h384v128H512z" fill="#e6e6e6" p-id="2078" data-spm-anchor-id="a313x.search_index.0.i9.29f33a81IvuOT2" class=""></path><path d="M896 288H512a32 32 0 0 1-32-32V128a32 32 0 0 1 32-32h384a32 32 0 0 1 32 32v128a32 32 0 0 1-32 32zM544 224h320V160H544z" fill="#e6e6e6" p-id="2079" data-spm-anchor-id="a313x.search_index.0.i11.29f33a81IvuOT2" class=""></path></svg>