<svg t="1705800157230" class="icon" viewBox="0 0 1024 1024" version="1.1" xmlns="http://www.w3.org/2000/svg" p-id="12066" width="200" height="200"><path d="M691.2 563.2c5.12 10.24 15.36 20.48 20.48 30.72V640c61.44 35.84 112.64 81.92 163.84 117.76v71.68h138.24v-51.2c-46.08-35.84-81.92-81.92-148.48-107.52v-71.68c35.84-46.08 56.32-112.64 56.32-163.84 0-81.92-61.44-148.48-133.12-148.48-20.48 0-40.96 5.12-56.32 15.36 5.12 15.36 5.12 35.84 5.12 56.32-5.12 61.44-20.48 138.24-46.08 204.8zM10.24 778.24v51.2h138.24v-71.68c51.2-40.96 97.28-87.04 163.84-122.88v-30.72c10.24-10.24 15.36-20.48 20.48-35.84-30.72-66.56-46.08-143.36-46.08-209.92 0-20.48 0-40.96 5.12-61.44-15.36-5.12-35.84-10.24-56.32-10.24-71.68 0-133.12 66.56-133.12 153.6 0 51.2 25.6 122.88 61.44 163.84v66.56c-71.68 25.6-107.52 71.68-153.6 107.52zM691.2 363.52c0-122.88-66.56-220.16-179.2-220.16s-184.32 102.4-184.32 220.16c0 87.04 35.84 204.8 97.28 261.12C317.44 665.6 256 727.04 194.56 773.12v102.4h640v-102.4c-66.56-46.08-128-107.52-235.52-138.24v-5.12c61.44-61.44 92.16-179.2 92.16-266.24z" fill="#e6e6e6" p-id="12067"></path></svg>