<svg t="1706106555230" class="icon" viewBox="0 0 1024 1024" version="1.1" xmlns="http://www.w3.org/2000/svg" p-id="17191" width="200" height="200"><path d="M832.902095 413.793524c-12.873143-11.702857-29.549714-17.261714-49.444571-17.261714-22.235429 0-40.374857 7.314286-53.833143 22.528-13.165714 14.043429-19.894857 32.768-20.187429 56.173714h31.890286c0.585143-16.969143 4.096-29.549714 11.117714-38.326857 6.729143-9.069714 16.676571-13.458286 29.842286-13.458286 12.288 0 21.942857 2.925714 28.379429 8.777143 6.436571 5.851429 9.654857 14.628571 9.654857 26.331428 0 12.288-4.973714 23.698286-14.336 34.230858-5.851429 6.144-15.798857 14.043429-29.842286 23.990857-23.698286 16.384-39.497143 28.964571-47.104 38.034285a79.481905 79.481905 0 0 0-20.772571 54.710858h143.945143v-28.086858h-104.448c4.388571-11.410286 17.846857-24.576 40.374857-39.497142 20.772571-14.043429 35.108571-25.161143 43.300571-33.645715 13.458286-14.921143 20.48-31.305143 20.48-49.444571 0-18.432-6.436571-33.353143-19.017143-45.056z" p-id="17192" fill="#dbdbdb"></path><path d="M780.190476 707.047619a195.096381 195.096381 0 0 1-192.512-163.547429H414.47619v-48.761904h171.398096A195.047619 195.047619 0 1 1 780.190476 707.047619z m0-341.333333a146.285714 146.285714 0 1 0 0 292.571428 146.285714 146.285714 0 0 0 0-292.571428z" p-id="17193" fill="#dbdbdb"></path><path d="M243.809524 714.166857a195.047619 195.047619 0 1 0 0-390.095238 195.047619 195.047619 0 0 0 0 390.095238z m26.819047-306.371047h-23.990857a121.563429 121.563429 0 0 1-55.881143 33.060571v31.597714c19.309714-5.558857 35.401143-14.336 47.981715-26.331428v170.569143h31.890285V407.79581z" p-id="17194" fill="#dbdbdb"></path></svg>