<svg t="1705840912480" class="icon" viewBox="0 0 1024 1024" version="1.1" xmlns="http://www.w3.org/2000/svg" p-id="4228" width="200" height="200"><path d="M640 42.666667H384v85.333333h256V42.666667z m-170.666667 554.666666h85.333334V341.333333h-85.333334v256z m342.4-282.24l60.8-60.8c-18.346667-21.973333-38.4-42.026667-60.373333-60.373333l-60.8 60.8A382.122667 382.122667 0 0 0 511.786667 170.666667C299.52 170.666667 128 342.613333 128 554.666667s171.52 384 383.786667 384S896 766.72 896 554.666667c0-90.666667-31.573333-173.866667-84.266667-239.573334zM512 853.333333c-164.906667 0-298.666667-133.76-298.666667-298.666666s133.76-298.666667 298.666667-298.666667 298.666667 133.76 298.666667 298.666667-133.76 298.666667-298.666667 298.666666z" p-id="4229" fill="#e6e6e6"></path></svg>