<svg t="1694877862282" class="icon" viewBox="0 0 1024 1024" version="1.1" xmlns="http://www.w3.org/2000/svg" p-id="10887" width="200" height="200"><path d="M106.88 680.32a16 16 0 0 0 16 16h778.24a16 16 0 0 0 16-16V512a15.36 15.36 0 0 0-3.2-9.6L768 328.96a16 16 0 0 0-12.16-5.76H270.08a16 16 0 0 0-14.08 5.76L110.72 502.4a15.36 15.36 0 0 0-3.84 9.6z m778.88-16H138.88V528.64h746.24zM277.12 355.84h469.76l119.68 141.44H157.44zM901.12 784.64a32 32 0 0 0-32 32v30.72H154.88v-30.72a32 32 0 0 0-64 0v64a32 32 0 0 0 32 32h778.24a32 32 0 0 0 32-32v-64a32 32 0 0 0-32-32zM901.12 112.64H122.88a32 32 0 0 0-32 32v64a32 32 0 0 0 64 0v-32h714.24v30.72a32 32 0 0 0 64 0v-64a32 32 0 0 0-32-30.72z" fill="#878787" p-id="10888"></path></svg>