<svg t="1703753856524" class="icon" viewBox="0 0 1024 1024" version="1.1" xmlns="http://www.w3.org/2000/svg" p-id="5510" width="200" height="200"><path d="M759.466667 392.533333h-128v-128c0-25.6-17.066667-42.666667-42.666667-42.666666s-42.666667 17.066667-42.666667 42.666666v128h-128c-25.6 0-42.666667 17.066667-42.666666 42.666667s17.066667 42.666667 42.666666 42.666667h128v128c0 25.6 17.066667 42.666667 42.666667 42.666666s42.666667-17.066667 42.666667-42.666666v-128h128c25.6 0 42.666667-17.066667 42.666666-42.666667s-21.333333-42.666667-42.666666-42.666667z" p-id="5511" fill="#3e75ff"></path><path d="M861.866667 42.666667H311.466667C243.2 42.666667 192 93.866667 192 162.133333v550.4c0 64 51.2 119.466667 119.466667 119.466667h550.4c64 0 119.466667-51.2 119.466666-119.466667V162.133333C981.333333 93.866667 930.133333 42.666667 861.866667 42.666667z m34.133333 669.866666c0 17.066667-17.066667 34.133333-34.133333 34.133334H311.466667c-17.066667 0-34.133333-17.066667-34.133334-34.133334V162.133333c0-17.066667 17.066667-34.133333 34.133334-34.133333h550.4c17.066667 0 34.133333 17.066667 34.133333 34.133333v550.4z" p-id="5512" fill="#3e75ff"></path><path d="M512 896H145.066667c-8.533333 0-17.066667-8.533333-17.066667-17.066667V512c0-25.6-17.066667-42.666667-42.666667-42.666667s-42.666667 17.066667-42.666666 42.666667v366.933333C42.666667 934.4 89.6 981.333333 145.066667 981.333333H512c25.6 0 42.666667-17.066667 42.666667-42.666666s-17.066667-42.666667-42.666667-42.666667z" p-id="5513" fill="#3e75ff"></path></svg>