<svg t="1695891237786" class="icon" viewBox="0 0 1024 1024" version="1.1" xmlns="http://www.w3.org/2000/svg" p-id="10845" width="200" height="200"><path d="M809.6 629.76H524.16V394.24a118.4 118.4 0 0 0-236.16 0v259.84l-8.32-9.6a119.04 119.04 0 0 0-83.2-33.92 119.04 119.04 0 0 0-85.12 200.32l186.88 200.32a51.2 51.2 0 0 0 13.44 9.6 44.16 44.16 0 0 0 15.36 3.2h482.56a113.92 113.92 0 0 0 108.16-118.4v-157.44a113.92 113.92 0 0 0-108.16-118.4z m40.96 275.84c0 21.12-24.96 49.92-40.96 49.92H350.72l-185.6-192a57.6 57.6 0 0 1 0-68.48 45.44 45.44 0 0 1 58.88 6.4L295.68 768a37.12 37.12 0 0 0 27.52 11.52 56.32 56.32 0 0 0 32-11.52V394.24c0-21.12 29.44-43.52 50.56-43.52a53.12 53.12 0 0 1 49.28 43.52v267.52c0 21.76 8.32 39.04 30.08 39.04h325.76a56.96 56.96 0 0 1 40.96 48.64z" p-id="10846" fill="#e6e6e6"></path><path d="M905.6 0H118.4A118.4 118.4 0 0 0 0 118.4v314.88a117.76 117.76 0 0 0 118.4 117.76h40.32A39.04 39.04 0 0 0 197.76 512c0-21.76-17.28-33.28-39.04-33.28h-40.32a50.56 50.56 0 0 1-45.44-45.44V118.4a49.28 49.28 0 0 1 45.44-44.16h787.2a48.64 48.64 0 0 1 44.8 44.16v314.88a49.92 49.92 0 0 1-44.8 45.44H640c-21.76 0-39.68 11.52-39.68 33.28a39.68 39.68 0 0 0 11.52 27.52 38.4 38.4 0 0 0 28.16 11.52h263.04A117.76 117.76 0 0 0 1024 433.28V118.4A118.4 118.4 0 0 0 905.6 0zM327.04 1024z" p-id="10847" fill="#e6e6e6"></path></svg>