<svg t="1693189763240" class="icon" viewBox="0 0 1024 1024" version="1.1" xmlns="http://www.w3.org/2000/svg" p-id="1498" width="200" height="200"><path d="M844.8 847.872V563.2a25.6 25.6 0 0 0-25.6-25.6h-45.056a25.6 25.6 0 1 1 0-51.2H819.2a76.8 76.8 0 0 1 76.8 76.8v310.272a25.6 25.6 0 0 1-25.6 25.6H153.6a25.6 25.6 0 0 1-25.6-25.6v-303.1552a76.8 76.8 0 0 1 76.8-76.8h50.9952a25.6 25.6 0 0 1 0 51.2H204.8a25.6 25.6 0 0 0-25.6 25.6v277.5552h665.6z" fill="#dbdbdb" p-id="1499"></path><path d="M519.3728 676.4544l150.016-241.7152c14.2848-21.0944 21.8112-46.592 21.8112-76.3392a179.2 179.2 0 0 0-358.4 0c0 35.4816 9.8304 64.768 28.2624 87.6544l1.1776 1.536 157.1328 228.864zM281.6 358.4a230.4 230.4 0 0 1 460.8 0c0 39.8336-10.496 75.264-30.0544 104.192L542.208 736.768a25.6 25.6 0 0 1-42.8544 0.9728L320.512 477.3888C294.912 445.2864 281.6 404.9408 281.6 358.4z" fill="#dbdbdb" p-id="1500"></path><path d="M512 486.4a128 128 0 1 1 0-256 128 128 0 0 1 0 256z m0-51.2a76.8 76.8 0 1 0 0-153.6 76.8 76.8 0 0 0 0 153.6z" fill="#dbdbdb" p-id="1501"></path></svg>