<svg t="1703637193154" class="icon" viewBox="0 0 1024 1024" version="1.1" xmlns="http://www.w3.org/2000/svg" p-id="5306" width="200" height="200"><path d="M904 192 120 192c-31 0-55.8 25-56 56l0 0 0 0.6 0 526.8 0 0.6 0 0c0.4 31 25 56 56 56l784 0c31.2 0 56-25.4 56-56.6l0 0L960 248.6l0 0C960 217.4 935.2 192 904 192zM154.2 256l715.4 0c13.8 0 24.2 10.2 26.2 24l0 40L128 320l0-40.6C130 265.8 140.6 256 154.2 256zM869.8 768 154.2 768c-13.8 0-24.2-9.8-26.2-23.4L128 512l768 0 0 232C894 757.8 883.4 768 869.8 768z" p-id="5307" fill="#dbdbdb"></path><path d="M192 608l384 0 0 32-384 0 0-32Z" p-id="5308" fill="#dbdbdb"></path><path d="M192 672l192 0 0 32-192 0 0-32Z" p-id="5309" fill="#dbdbdb"></path><path d="M704 608l128 0 0 96-128 0 0-96Z" p-id="5310" fill="#dbdbdb"></path></svg>