<svg t="1705756830157" class="icon" viewBox="0 0 1324 1024" version="1.1" xmlns="http://www.w3.org/2000/svg" p-id="10370" data-spm-anchor-id="a313x.search_index.0.i10.4b053a81QMotJf" width="200" height="200"><path d="M301.438003 976.001636H75.100889a27.516304 27.516304 0 0 1-27.309414-27.309414V75.204747a27.516304 27.516304 0 0 1 27.309414-27.309414H926.864965a23.999182 23.999182 0 1 0 0-47.791474H75.100889A75.307778 75.307778 0 0 0 0 67.136057v889.624855a75.514668 75.514668 0 0 0 74.68711 67.239088h226.750893a23.999182 23.999182 0 0 0 0-47.998364zM1324.092808 67.136057A75.307778 75.307778 0 0 0 1248.991919 0.103859H1022.654804a23.999182 23.999182 0 1 0 0 47.791474h226.337115a27.516304 27.516304 0 0 1 27.309414 27.309414v873.487475a27.516304 27.516304 0 0 1-27.309414 27.309414H397.227842a23.999182 23.999182 0 1 0 0 47.998364h851.764077A75.514668 75.514668 0 0 0 1324.092808 956.760912v-889.624855z" p-id="10371" fill="#ffffff" data-spm-anchor-id="a313x.search_index.0.i2.4b053a81QMotJf" class=""></path><path d="M635.564548 255.405503m9.723806 0l239.164264 0q9.723807 0 9.723806 9.723807l0 28.343861q0 9.723807-9.723806 9.723807l-239.164264 0q-9.723807 0-9.723806-9.723807l0-28.343861q0-9.723807 9.723806-9.723807Z" p-id="10372" fill="#dbdbdb"></path><path d="M635.564548 356.988248m9.723806 0l496.741693 0q9.723807 0 9.723806 9.723807l0 28.343861q0 9.723807-9.723806 9.723807l-496.741693 0q-9.723807 0-9.723806-9.723807l0-28.343861q0-9.723807 9.723806-9.723807Z" p-id="10373" fill="#dbdbdb" data-spm-anchor-id="a313x.search_index.0.i9.4b053a81QMotJf" class=""></path><path d="M635.564548 458.570993m9.723806 0l513.499742 0q9.723807 0 9.723807 9.723807l0 28.343861q0 9.723807-9.723807 9.723807l-513.499742 0q-9.723807 0-9.723806-9.723807l0-28.343861q0-9.723807 9.723806-9.723807Z" p-id="10374" fill="#dbdbdb"></path><path d="M635.564548 560.153738m9.723806 0l431.5715 0q9.723807 0 9.723806 9.723807l0 28.343862q0 9.723807-9.723806 9.723806l-431.5715 0q-9.723807 0-9.723806-9.723806l0-28.343862q0-9.723807 9.723806-9.723807Z" p-id="10375" fill="#dbdbdb"></path><path d="M635.564548 661.736483m9.723806 0l461.363588 0q9.723807 0 9.723807 9.723807l0 28.343862q0 9.723807-9.723807 9.723806l-461.363588 0q-9.723807 0-9.723806-9.723806l0-28.343862q0-9.723807 9.723806-9.723807Z" p-id="10376" fill="#dbdbdb"></path><path d="M635.564548 763.319228m9.723806 0l73.652663 0q9.723807 0 9.723806 9.723807l0 28.343862q0 9.723807-9.723806 9.723806l-73.652663 0q-9.723807 0-9.723806-9.723806l0-28.343862q0-9.723807 9.723806-9.723807Z" p-id="10377" fill="#dbdbdb"></path><path d="M362.263517 322.437701m-147.719104 0a147.719104 147.719104 0 1 0 295.438207 0 147.719104 147.719104 0 1 0-295.438207 0Z" p-id="10378" fill="#dbdbdb"></path><path d="M558.601653 724.217113s-20.68895-121.857916-28.136972-142.133088a32.895431 32.895431 0 0 0-26.274967-22.550955H210.613512a32.895431 32.895431 0 0 0-26.274966 22.550955c-6.206685 20.68895-27.930083 142.133087-27.930083 142.133088a41.3779 41.3779 0 0 0 7.654911 33.10232c12.206481 17.792497 130.340386 91.858939 193.027905 91.858938s180.821424-73.859552 193.234794-91.652049A41.3779 41.3779 0 0 0 558.601653 724.217113z" p-id="10379" fill="#dbdbdb"></path></svg>