<svg t="1704775857041" class="icon" viewBox="0 0 1024 1024" version="1.1" xmlns="http://www.w3.org/2000/svg" p-id="18703" width="200" height="200"><path d="M511.52 401.76c2 0 3.68-1.44 4-3.44 1.2-8.32 30-204.32 30-220.96a34.08 34.08 0 0 0-34-34 34.08 34.08 0 0 0-34 34c0 16.64 28.8 212.64 30 220.96 0.32 2 2 3.44 4 3.44zM478.64 455.28s-70.96-178.88-78.72-192.32c-7.76-13.36-24.88-18-38.24-10.24-13.36 7.76-18 24.88-10.24 38.24 7.76 13.44 127.2 164.32 127.2 164.32zM212.32 512.48c0 15.44 12.56 28 28 28s205.84-28 205.84-28-190.4-28-205.84-28c-15.44 0-28 12.56-28 28zM352.32 733.52c-7.76 13.36-3.12 30.48 10.24 38.24 13.36 7.76 30.56 3.12 38.24-10.24 7.76-13.36 78.72-192.32 78.72-192.32s-119.44 150.96-127.2 164.32zM545.36 568.72s70.96 178.88 78.72 192.32c7.76 13.36 24.88 18 38.24 10.24 13.36-7.76 18-24.88 10.24-38.24-7.76-13.44-127.2-164.32-127.2-164.32zM577.76 511.52s190.4 28 205.84 28c15.44 0 28-12.56 28-28s-12.56-28-28-28c-15.36 0-205.84 28-205.84 28zM671.68 290.48c7.76-13.36 3.12-30.48-10.24-38.24a27.984 27.984 0 0 0-38.24 10.24c-7.76 13.36-78.72 192.32-78.72 192.32s119.44-150.96 127.2-164.32zM204.96 374.56c14.4 8.32 198.56 81.36 206.32 84.48 0.48 0.16 0.96 0.32 1.44 0.32 1.36 0 2.72-0.72 3.44-2 0.96-1.68 0.56-3.92-0.96-5.12-6.64-5.2-161.92-128.16-176.32-136.48a34.048 34.048 0 0 0-46.4 12.4 34.144 34.144 0 0 0 12.48 46.4zM416.8 567.52a3.888 3.888 0 0 0-4.96-1.68c-7.84 3.12-191.92 76.16-206.32 84.48-7.84 4.56-13.52 11.84-15.84 20.64-2.32 8.8-1.12 17.92 3.36 25.76 4.56 7.84 11.84 13.52 20.64 15.84a33.728 33.728 0 0 0 25.84-3.36c14.4-8.32 169.76-131.2 176.32-136.48a4.16 4.16 0 0 0 0.96-5.2zM512.48 622.24c-2 0-3.68 1.44-4 3.44-1.2 8.32-30 204.32-30 220.96a34.08 34.08 0 0 0 34 34 34.08 34.08 0 0 0 34-34c0-16.64-28.8-212.64-30-220.96a4.04 4.04 0 0 0-4-3.44zM819.04 649.44c-14.4-8.32-198.56-81.36-206.32-84.48-1.84-0.72-3.92 0-4.96 1.68-0.96 1.68-0.56 3.92 0.96 5.12 6.64 5.2 161.92 128.16 176.32 136.48a34.08 34.08 0 0 0 46.48-12.4c9.28-16.24 3.68-37.04-12.48-46.4zM607.2 456.48c0.72 1.28 2.08 2 3.44 2 0.48 0 0.96-0.08 1.44-0.32 7.84-3.12 191.92-76.16 206.32-84.48 7.84-4.56 13.52-11.84 15.84-20.64 2.32-8.8 1.12-17.92-3.36-25.76a33.72 33.72 0 0 0-20.64-15.84 33.68 33.68 0 0 0-25.76 3.36c-14.4 8.32-169.76 131.2-176.32 136.48a4.16 4.16 0 0 0-0.96 5.2z" fill="#3377ff" p-id="18704"></path></svg>